#!OML:ASF F:\VICON\USERDATA\INSTALL\rory3\rory3.ASF
:FULLY-SPECIFIED
:DEGREES
77
root 0.04106357338230146 17.524744932285824 45.01611903381414 1.6215216069735017 -0.254534116506025 -0.3142369702710792
lfemur -6.7770014344597325 -2.351450179777301 -26.824835499970956
ltibia 46.13730093339615
lfoot -14.834752741527584 -3.1399965172778237
ltoes -2.4509053670625764
rfemur -42.72766525636739 -8.459640907302179 25.38066763935435
rtibia 105.30312860892488
rfoot 5.418891376151245 -8.084141791703868
rtoes 4.868630915922057
lowerback 16.478859146295772 0.6743383122880453 -1.1055305826983715
upperback 0.06287709792037877 0.9092589711570304 0.6380243856061325
thorax -9.649459202570837 0.4911600363107413 1.8772535521581464
lowerneck -19.627143232534895 -2.7034947556806666 -3.056371496418104
upperneck 12.809536225339599 -3.631089635378413 4.022745189478692
head 7.399073737883279 -1.3737693290622852 1.3389784411786252
lclavicle -1.44928626206748e-15 1.986392918480396e-15
lhumerus -45.66484918609454 -14.430404496166902 96.524743880187
lradius 101.67094835055413
lwrist 34.06237516296908
lhand -26.335809370188695 -0.22834120066065267
lfingers 7.12502
lthumb 0.22155499027779535 29.751997116084823
rclavicle -1.44928626206748e-15 1.986392918480396e-15
rhumerus -51.262483436742336 9.846430779876474 -99.07931500693877
rradius 113.26812869691047
rwrist -11.16606955220316
rhand -15.46851778888719 39.54248298786634
rfingers 7.12502
rthumb 10.712927997962746 9.889778784723198
78
root 0.018128698653490427 17.459815293281977 46.65840229162303 2.5439086084576354 1.0624306874458347 0.169189919703006
lfemur -0.8730194840624321 -1.9395773512824925 -27.5760292296983
ltibia 41.56682338660404
lfoot -16.076452001148947 -3.2904172941247753
ltoes -3.2602111140155667
rfemur -46.09801172237134 -6.4982755530249126 24.569824800383326
rtibia 86.1707338301988
rfoot 3.8527354535555958 -11.372858672656552
rtoes 0.5615117875969378
lowerback 16.26954731393682 0.17593650040454267 -1.8952207061129538
upperback -0.12849413576925484 0.10692675356944603 0.7768512533912406
thorax -9.598969102158701 0.15776614890846186 2.7731833332460023
lowerneck -19.71635700371156 -2.8670064420284613 -3.307118236202691
upperneck 12.6235998617928 -3.784662122464716 4.3460873751159
head 7.366169797301453 -1.433378172145546 1.473393094625808
lclavicle -1.129179923353614e-15 2.218576558820459e-15
lhumerus -39.06534129531911 -17.17289596916575 96.55449370190527
lradius 105.55496064380594
lwrist 35.267766320092264
lhand -26.103256248008034 0.4451815990418959
lfingers 7.12502
lthumb 0.44609082999744665 30.42602963349026
rclavicle -1.129179923353614e-15 2.218576558820459e-15
rhumerus -53.2869987520176 10.301102766301993 -99.05190294021527
rradius 113.54026048055786
rwrist -11.542991288939
rhand -15.202065360637548 39.765581796566536
rfingers 7.12502
rthumb 10.970018084862318 10.122462851994557
79
root -0.02930585962542201 17.368095542399065 48.68477698570718 3.733274047544441 2.3748318924293277 0.6607284975576011
lfemur 5.850060357983528 -1.4770778846511865 -28.218839618358107
ltibia 34.94962381258924
lfoot -16.426852968070637 -3.9030198190697116
ltoes -5.237273466659027
rfemur -47.21750722482514 -2.9877036637687624 23.29844379783794
rtibia 62.979054609028275
rfoot 3.5622900825586026 -15.825974615053518
rtoes -3.257675056570171
lowerback 15.556251523269509 -0.28415549982516985 -2.730463581612943
upperback -0.39638200986944905 -0.6365853816164435 0.860997164699288
thorax -9.406331947664926 -0.15151699670408236 3.627364061192784
lowerneck -19.85402348077553 -2.935849842141243 -3.4482156472866197
upperneck 12.412438112426257 -3.869337469600127 4.59730887037548
head 7.332643691181791 -1.4466576537407196 1.5658325562444433
lclavicle -9.513039517370744e-16 2.3475958430007777e-15
lhumerus -32.645671922172426 -19.343130306973197 96.19301557927
lradius 109.85904971673834
lwrist 36.48454614720514
lhand -25.917502065970066 1.029339500578374
lfingers 7.12502
lthumb 0.6254321857064468 31.00734242053058
rclavicle -9.513039517370744e-16 2.3475958430007777e-15
rhumerus -55.308619018774436 10.302317176125971 -98.79085501651517
rradius 113.17966458791827
rwrist -11.511201003342597
rhand -14.938588437445144 40.10014168938732
rfingers 7.12502
rthumb 11.22427672270636 10.472964779288837
80
root -0.10600413934724658 17.176142333239035 50.47112022191191 4.867718759837975 3.5062098102722765 1.0138165433157864
lfemur 12.489704718581025 -1.5683919098949655 -28.63804496189689
ltibia 28.666027108959735
lfoot -16.468140280820872 -4.87260360834771
ltoes -8.941483251263401
rfemur -46.90267434294947 0.7334680709060852 22.02861527197147
rtibia 41.99520631198576
rfoot 3.3087377746038373 -18.987225729864523
rtoes -7.867348567997043
lowerback 14.58518949667315 -0.7035963295561372 -3.469299907713067
upperback -0.6577196250543653 -1.299194972178356 0.9603576830518104
thorax -9.136497458922676 -0.4289300651611724 4.34616913040975
lowerneck -20.108315012521874 -2.9428941259880164 -3.512696057417319
upperneck 12.294578487004298 -3.9051175920917314 4.745603908444872
head 7.328680553123143 -1.4341608990983379 1.6120874756985204
lclavicle -1.1116357662786067e-15 2.231301911887865e-15
lhumerus -27.220505998825423 -20.948567297458197 95.66846776097215
lradius 113.78432921277948
lwrist 37.43447624916066
lhand -26.01651282469388 1.0881292236165918
lfingers 7.12502
lthumb 0.5297990818764711 31.061390626232836
rclavicle -1.1116357662786067e-15 2.231301911887865e-15
rhumerus -57.382368943702645 9.382035994814672 -98.05418776129643
rradius 111.83131700321216
rwrist -10.931116720375913
rhand -14.913133255072065 40.451943164389576
rfingers 7.12502
rthumb 11.248862311341224 10.825070233579405
81
root -0.20356727973767 16.904889662368685 51.276468844440934 5.538844628123659 4.233277677556579 1.0968030077293611
lfemur 17.698688895505413 -2.445711556610168 -28.679888613197775
ltibia 26.005946013439406
lfoot -16.10122184148742 -5.950531956093336
ltoes -14.564346296998583
rfemur -46.14457236983489 2.9026425431154226 21.52633781119169
rtibia 30.692190900199243
rfoot 3.4524891990280517 -18.54954974136039
rtoes -12.501224905598756
lowerback 13.83550879585649 -1.0049105102539437 -3.8670204923727125
upperback -0.8079838949926382 -1.7505216058053699 1.1675148729152438
thorax -8.914830975037983 -0.6202342544930949 4.840425391482925
lowerneck -20.493768695923038 -2.921066953034406 -3.520878453617584
upperneck 12.333176251846643 -3.8840414985473983 4.733690719931413
head 7.368292786187896 -1.4128283336996592 1.6048957921910696
lclavicle -1.3900195485849097e-15 2.0293810135878495e-15
lhumerus -23.74824544231896 -21.886507632577697 95.38624866156097
lradius 116.63524264816942
lwrist 37.92499340391624
lhand -26.492412181227696 0.5229039411728584
lfingers 7.12502
lthumb 0.07023128439241821 30.49144613931276
rclavicle -1.3900195485849097e-15 2.0293810135878495e-15
rhumerus -59.36475736089438 7.6222491506790675 -96.75293885397673
rradius 109.60778539306928
rwrist -9.871793786012187
rhand -15.21210717568668 40.72672976488549
rfingers 7.12502
rthumb 10.960370312564086 11.079453128900335
82
root -0.29346102202519725 16.682398336753472 51.3487488563146 5.586003002912321 4.454131590177916 0.8439173353797784
lfemur 20.590934327246096 -3.7485021371763496 -28.241063542871455
ltibia 28.11985406285301
lfoot -13.964506838944938 -7.216657790342922
ltoes -20.980754470536823
rfemur -45.56371096927826 3.0653625171456955 22.126693198621037
rtibia 31.09718335527287
rfoot 4.993414823162459 -14.81768504206632
rtoes -13.886131687695901
lowerback 13.552364932653763 -1.1420809728356147 -3.7605272418761864
upperback -0.844584069185751 -1.9150191799508631 1.5135209220052142
thorax -8.819561215306273 -0.6938553160991353 5.0578958364163755
lowerneck -20.8212830968035 -2.7964023395571798 -3.468803242492169
upperneck 12.556891989815464 -3.6665778202853927 4.504375100459156
head 7.438903680455867 -1.3364469342925016 1.5448041068782383
lclavicle -1.5113160132135012e-15 1.9414007079949643e-15
lhumerus -22.72011057437795 -21.90138630257637 95.53855995913361
lradius 118.33551543645743
lwrist 38.04335814062361
lhand -27.103578455054986 -0.2015270701888625
lfingers 7.12502
lthumb -0.5199570439538357 29.763001676210997
rclavicle -1.5113160132135012e-15 1.9414007079949643e-15
rhumerus -61.27767439479091 5.456216902560028 -95.00535883443688
rradius 107.00698765228337
rwrist -8.525081262555158
rhand -15.63624753771798 40.86337650435548
rfingers 7.12502
rthumb 10.551076904876698 11.185799197380593
